<svg xmlns="http://www.w3.org/2000/svg" viewBox="0 0 64 64">
  <path d="m32,12.32c6.41,0,7.17.02,9.7.14,2.34.11,3.61.5,4.46.83,1.12.44,1.92.96,2.76,1.8.84.84,1.36,1.64,1.8,2.76.33.85.72,2.12.83,4.46.12,2.53.14,3.29.14,9.7s-.02,7.17-.14,9.7c-.11,2.34-.5,3.61-.83,4.46-.44,1.12-.96,1.92-1.8,2.76s-1.64,1.36-2.76,1.8c-.85.33-2.12.72-4.46.83-2.53.12-3.29.14-9.7.14s-7.17-.02-9.7-.14c-2.34-.11-3.61-.5-4.46-.83-1.12-.44-1.92-.96-2.76-1.8-.84-.84-1.36-1.64-1.8-2.76-.33-.85-.72-2.12-.83-4.46-.12-2.53-.14-3.29-.14-9.7s.02-7.17.14-9.7c.11-2.34.5-3.61.83-4.46.44-1.12.96-1.92,1.8-2.76s1.64-1.36,2.76-1.8c.85-.33,2.12-.72,4.46-.83,2.53-.12,3.29-.14,9.7-.14m0-4.32c-6.52,0-7.34.03-9.9.14-2.55.12-4.3.52-5.83,1.12-1.58.61-2.92,1.43-4.25,2.77-1.33,1.33-2.15,2.67-2.77,4.25-.59,1.53-1,3.27-1.12,5.83-.12,2.56-.14,3.38-.14,9.9s.03,7.34.14,9.9c.12,2.55.52,4.3,1.12,5.83.61,1.58,1.43,2.92,2.77,4.25,1.33,1.33,2.67,2.15,4.25,2.77,1.53.59,3.27,1,5.83,1.12,2.56.12,3.38.14,9.9.14s7.34-.03,9.9-.14c2.55-.12,4.3-.52,5.83-1.12,1.58-.61,2.92-1.43,4.25-2.77,1.33-1.33,2.15-2.67,2.77-4.25.59-1.53,1-3.27,1.12-5.83.12-2.56.14-3.38.14-9.9s-.03-7.34-.14-9.9c-.12-2.55-.52-4.3-1.12-5.83-.61-1.58-1.43-2.92-2.77-4.25-1.33-1.33-2.67-2.15-4.25-2.77-1.53-.59-3.27-1-5.83-1.12-2.56-.12-3.38-.14-9.9-.14h0Zm0,11.68c-6.81,0-12.32,5.52-12.32,12.32s5.52,12.32,12.32,12.32,12.32-5.52,12.32-12.32-5.52-12.32-12.32-12.32Zm0,20.32c-4.42,0-8-3.58-8-8s3.58-8,8-8,8,3.58,8,8-3.58,8-8,8Zm12.81-23.69c-1.59,0-2.88,1.29-2.88,2.88s1.29,2.88,2.88,2.88,2.88-1.29,2.88-2.88-1.29-2.88-2.88-2.88Z"/>
</svg>