<svg xmlns="http://www.w3.org/2000/svg" viewBox="0 0 64 64">
  <path d="m23.1,51.5c-5.35,0-10.59-1.53-15.1-4.42.78.09,1.56.14,2.34.14,4.44,0,8.74-1.48,12.23-4.22-4.21-.08-7.91-2.83-9.2-6.84,1.48.28,3,.23,4.45-.17-4.6-.93-7.9-4.97-7.9-9.65v-.12c1.37.76,2.9,1.19,4.47,1.23-4.33-2.89-5.66-8.65-3.05-13.15,5,6.15,12.38,9.89,20.3,10.29-.79-3.42.29-7,2.85-9.41,3.97-3.73,10.2-3.54,13.93.43,2.21-.43,4.32-1.24,6.25-2.39-.74,2.28-2.27,4.22-4.33,5.45,1.95-.23,3.86-.75,5.66-1.55-1.32,1.98-2.99,3.7-4.91,5.1.03.42.03.85.03,1.27,0,13.01-9.91,28.02-28.02,28.02"/>
</svg>